<?xml version="1.0" encoding="us-ascii" standalone="no"?><svg xmlns="http://www.w3.org/2000/svg" xmlns:xlink="http://www.w3.org/1999/xlink" contentStyleType="text/css" height="381px" preserveAspectRatio="none" style="width:825px;height:381px;background:#FFFFFF;" version="1.1" viewBox="0 0 825 381" width="825px" zoomAndPan="magnify"><defs/><g><!--class Box--><g id="elem_Box"><rect codeLine="1" fill="#F1F1F1" height="129.4844" id="Box" rx="2.5" ry="2.5" style="stroke:#181818;stroke-width:0.5;" width="164" x="277" y="245"/><ellipse cx="341.75" cy="261" fill="#ADD1B2" rx="11" ry="11" style="stroke:#181818;stroke-width:1.0;"/><path d="M344.7188,266.6406 Q344.1406,266.9375 343.5,267.0781 Q342.8594,267.2344 342.1563,267.2344 Q339.6563,267.2344 338.3281,265.5938 Q337.0156,263.9375 337.0156,260.8125 Q337.0156,257.6875 338.3281,256.0313 Q339.6563,254.375 342.1563,254.375 Q342.8594,254.375 343.5,254.5313 Q344.1563,254.6875 344.7188,254.9844 L344.7188,257.7031 Q344.0938,257.125 343.5,256.8594 Q342.9063,256.5781 342.2813,256.5781 Q340.9375,256.5781 340.25,257.6563 Q339.5625,258.7188 339.5625,260.8125 Q339.5625,262.9063 340.25,263.9844 Q340.9375,265.0469 342.2813,265.0469 Q342.9063,265.0469 343.5,264.7813 Q344.0938,264.5 344.7188,263.9219 L344.7188,266.6406 Z " fill="#000000"/><text fill="#000000" font-family="sans-serif" font-size="14" lengthAdjust="spacing" textLength="26" x="362.25" y="265.8467">Box</text><line style="stroke:#181818;stroke-width:0.5;" x1="278" x2="440" y1="277" y2="277"/><rect fill="none" height="6" style="stroke:#C82930;stroke-width:1.0;" width="6" x="285" y="287.6484"/><text fill="#000000" font-family="sans-serif" font-size="14" lengthAdjust="spacing" textLength="63" x="297" y="293.9951">Question</text><rect fill="none" height="6" style="stroke:#C82930;stroke-width:1.0;" width="6" x="285" y="303.9453"/><text fill="#000000" font-family="sans-serif" font-size="14" lengthAdjust="spacing" textLength="34" x="297" y="310.292">Type</text><line style="stroke:#181818;stroke-width:0.5;" x1="278" x2="440" y1="317.5938" y2="317.5938"/><ellipse cx="288" cy="331.2422" fill="#84BE84" rx="3" ry="3" style="stroke:#038048;stroke-width:1.0;"/><text fill="#000000" font-family="sans-serif" font-size="14" lengthAdjust="spacing" textLength="99" x="297" y="334.5889">EditQuestion()</text><ellipse cx="288" cy="347.5391" fill="#84BE84" rx="3" ry="3" style="stroke:#038048;stroke-width:1.0;"/><text fill="#000000" font-family="sans-serif" font-size="14" lengthAdjust="spacing" textLength="138" x="297" y="350.8857">ChangeDimension()</text><ellipse cx="288" cy="363.8359" fill="#84BE84" rx="3" ry="3" style="stroke:#038048;stroke-width:1.0;"/><text fill="#000000" font-family="sans-serif" font-size="14" lengthAdjust="spacing" textLength="47" x="297" y="367.1826">Move()</text></g><!--class Text--><g id="elem_Text"><rect codeLine="11" fill="#F1F1F1" height="80.5938" id="Text" rx="2.5" ry="2.5" style="stroke:#181818;stroke-width:0.5;" width="124" x="7" y="55.5"/><ellipse cx="49.9" cy="71.5" fill="#ADD1B2" rx="11" ry="11" style="stroke:#181818;stroke-width:1.0;"/><path d="M52.8688,77.1406 Q52.2906,77.4375 51.65,77.5781 Q51.0094,77.7344 50.3063,77.7344 Q47.8063,77.7344 46.4781,76.0938 Q45.1656,74.4375 45.1656,71.3125 Q45.1656,68.1875 46.4781,66.5313 Q47.8063,64.875 50.3063,64.875 Q51.0094,64.875 51.65,65.0313 Q52.3063,65.1875 52.8688,65.4844 L52.8688,68.2031 Q52.2438,67.625 51.65,67.3594 Q51.0563,67.0781 50.4313,67.0781 Q49.0875,67.0781 48.4,68.1563 Q47.7125,69.2188 47.7125,71.3125 Q47.7125,73.4063 48.4,74.4844 Q49.0875,75.5469 50.4313,75.5469 Q51.0563,75.5469 51.65,75.2813 Q52.2438,75 52.8688,74.4219 L52.8688,77.1406 Z " fill="#000000"/><text fill="#000000" font-family="sans-serif" font-size="14" lengthAdjust="spacing" textLength="30" x="70.1" y="76.3467">Text</text><line style="stroke:#181818;stroke-width:0.5;" x1="8" x2="130" y1="87.5" y2="87.5"/><rect fill="none" height="6" style="stroke:#C82930;stroke-width:1.0;" width="6" x="15" y="98.1484"/><text fill="#000000" font-family="sans-serif" font-size="14" lengthAdjust="spacing" textLength="34" x="27" y="104.4951">Type</text><line style="stroke:#181818;stroke-width:0.5;" x1="8" x2="130" y1="111.7969" y2="111.7969"/><ellipse cx="18" cy="125.4453" fill="#84BE84" rx="3" ry="3" style="stroke:#038048;stroke-width:1.0;"/><text fill="#000000" font-family="sans-serif" font-size="14" lengthAdjust="spacing" textLength="98" x="27" y="128.792">ChangeType()</text></g><!--class DropDown--><g id="elem_DropDown"><rect codeLine="16" fill="#F1F1F1" height="145.7813" id="DropDown" rx="2.5" ry="2.5" style="stroke:#181818;stroke-width:0.5;" width="176" x="166" y="23"/><ellipse cx="212.75" cy="39" fill="#ADD1B2" rx="11" ry="11" style="stroke:#181818;stroke-width:1.0;"/><path d="M215.7188,44.6406 Q215.1406,44.9375 214.5,45.0781 Q213.8594,45.2344 213.1563,45.2344 Q210.6563,45.2344 209.3281,43.5938 Q208.0156,41.9375 208.0156,38.8125 Q208.0156,35.6875 209.3281,34.0313 Q210.6563,32.375 213.1563,32.375 Q213.8594,32.375 214.5,32.5313 Q215.1563,32.6875 215.7188,32.9844 L215.7188,35.7031 Q215.0938,35.125 214.5,34.8594 Q213.9063,34.5781 213.2813,34.5781 Q211.9375,34.5781 211.25,35.6563 Q210.5625,36.7188 210.5625,38.8125 Q210.5625,40.9063 211.25,41.9844 Q211.9375,43.0469 213.2813,43.0469 Q213.9063,43.0469 214.5,42.7813 Q215.0938,42.5 215.7188,41.9219 L215.7188,44.6406 Z " fill="#000000"/><text fill="#000000" font-family="sans-serif" font-size="14" lengthAdjust="spacing" textLength="74" x="233.25" y="43.8467">DropDown</text><line style="stroke:#181818;stroke-width:0.5;" x1="167" x2="341" y1="55" y2="55"/><rect fill="none" height="6" style="stroke:#C82930;stroke-width:1.0;" width="6" x="174" y="65.6484"/><text fill="#000000" font-family="sans-serif" font-size="14" lengthAdjust="spacing" textLength="150" x="186" y="71.9951">Options: List&lt;String&gt;</text><line style="stroke:#181818;stroke-width:0.5;" x1="167" x2="341" y1="79.2969" y2="79.2969"/><ellipse cx="177" cy="92.9453" fill="#84BE84" rx="3" ry="3" style="stroke:#038048;stroke-width:1.0;"/><text fill="#000000" font-family="sans-serif" font-size="14" lengthAdjust="spacing" textLength="83" x="186" y="96.292">AddOption()</text><ellipse cx="177" cy="109.2422" fill="#84BE84" rx="3" ry="3" style="stroke:#038048;stroke-width:1.0;"/><text fill="#000000" font-family="sans-serif" font-size="14" lengthAdjust="spacing" textLength="102" x="186" y="112.5889">DeleteOption()</text><ellipse cx="177" cy="125.5391" fill="#84BE84" rx="3" ry="3" style="stroke:#038048;stroke-width:1.0;"/><text fill="#000000" font-family="sans-serif" font-size="14" lengthAdjust="spacing" textLength="82" x="186" y="128.8857">EditOption()</text><ellipse cx="177" cy="141.8359" fill="#84BE84" rx="3" ry="3" style="stroke:#038048;stroke-width:1.0;"/><text fill="#000000" font-family="sans-serif" font-size="14" lengthAdjust="spacing" textLength="103" x="186" y="145.1826">ChangeOrder()</text><ellipse cx="177" cy="158.1328" fill="#84BE84" rx="3" ry="3" style="stroke:#038048;stroke-width:1.0;"/><text fill="#000000" font-family="sans-serif" font-size="14" lengthAdjust="spacing" textLength="92" x="186" y="161.4795">SortOptions()</text></g><!--class Choice--><g id="elem_Choice"><rect codeLine="25" fill="#F1F1F1" height="178.375" id="Choice" rx="2.5" ry="2.5" style="stroke:#181818;stroke-width:0.5;" width="174" x="377" y="7"/><ellipse cx="435.75" cy="23" fill="#ADD1B2" rx="11" ry="11" style="stroke:#181818;stroke-width:1.0;"/><path d="M438.7188,28.6406 Q438.1406,28.9375 437.5,29.0781 Q436.8594,29.2344 436.1563,29.2344 Q433.6563,29.2344 432.3281,27.5938 Q431.0156,25.9375 431.0156,22.8125 Q431.0156,19.6875 432.3281,18.0313 Q433.6563,16.375 436.1563,16.375 Q436.8594,16.375 437.5,16.5313 Q438.1563,16.6875 438.7188,16.9844 L438.7188,19.7031 Q438.0938,19.125 437.5,18.8594 Q436.9063,18.5781 436.2813,18.5781 Q434.9375,18.5781 434.25,19.6563 Q433.5625,20.7188 433.5625,22.8125 Q433.5625,24.9063 434.25,25.9844 Q434.9375,27.0469 436.2813,27.0469 Q436.9063,27.0469 437.5,26.7813 Q438.0938,26.5 438.7188,25.9219 L438.7188,28.6406 Z " fill="#000000"/><text fill="#000000" font-family="sans-serif" font-size="14" lengthAdjust="spacing" textLength="48" x="456.25" y="27.8467">Choice</text><line style="stroke:#181818;stroke-width:0.5;" x1="378" x2="550" y1="39" y2="39"/><rect fill="none" height="6" style="stroke:#C82930;stroke-width:1.0;" width="6" x="385" y="49.6484"/><text fill="#000000" font-family="sans-serif" font-size="14" lengthAdjust="spacing" textLength="148" x="397" y="55.9951">Choices:List&lt;String&gt;</text><rect fill="none" height="6" style="stroke:#C82930;stroke-width:1.0;" width="6" x="385" y="65.9453"/><text fill="#000000" font-family="sans-serif" font-size="14" lengthAdjust="spacing" textLength="72" x="397" y="72.292">MinChoice</text><rect fill="none" height="6" style="stroke:#C82930;stroke-width:1.0;" width="6" x="385" y="82.2422"/><text fill="#000000" font-family="sans-serif" font-size="14" lengthAdjust="spacing" textLength="75" x="397" y="88.5889">MaxChoice</text><line style="stroke:#181818;stroke-width:0.5;" x1="378" x2="550" y1="95.8906" y2="95.8906"/><ellipse cx="388" cy="109.5391" fill="#84BE84" rx="3" ry="3" style="stroke:#038048;stroke-width:1.0;"/><text fill="#000000" font-family="sans-serif" font-size="14" lengthAdjust="spacing" textLength="85" x="397" y="112.8857">AddChoice()</text><ellipse cx="388" cy="125.8359" fill="#84BE84" rx="3" ry="3" style="stroke:#038048;stroke-width:1.0;"/><text fill="#000000" font-family="sans-serif" font-size="14" lengthAdjust="spacing" textLength="104" x="397" y="129.1826">DeleteChoice()</text><ellipse cx="388" cy="142.1328" fill="#84BE84" rx="3" ry="3" style="stroke:#038048;stroke-width:1.0;"/><text fill="#000000" font-family="sans-serif" font-size="14" lengthAdjust="spacing" textLength="84" x="397" y="145.4795">EditChoice()</text><ellipse cx="388" cy="158.4297" fill="#84BE84" rx="3" ry="3" style="stroke:#038048;stroke-width:1.0;"/><text fill="#000000" font-family="sans-serif" font-size="14" lengthAdjust="spacing" textLength="103" x="397" y="161.7764">ChangeOrder()</text><ellipse cx="388" cy="174.7266" fill="#84BE84" rx="3" ry="3" style="stroke:#038048;stroke-width:1.0;"/><text fill="#000000" font-family="sans-serif" font-size="14" lengthAdjust="spacing" textLength="94" x="397" y="178.0732">SortChoices()</text></g><!--class File--><g id="elem_File"><rect codeLine="37" fill="#F1F1F1" height="96.8906" id="File" rx="2.5" ry="2.5" style="stroke:#181818;stroke-width:0.5;" width="232" x="586" y="47.5"/><ellipse cx="686.25" cy="63.5" fill="#ADD1B2" rx="11" ry="11" style="stroke:#181818;stroke-width:1.0;"/><path d="M689.2188,69.1406 Q688.6406,69.4375 688,69.5781 Q687.3594,69.7344 686.6563,69.7344 Q684.1563,69.7344 682.8281,68.0938 Q681.5156,66.4375 681.5156,63.3125 Q681.5156,60.1875 682.8281,58.5313 Q684.1563,56.875 686.6563,56.875 Q687.3594,56.875 688,57.0313 Q688.6563,57.1875 689.2188,57.4844 L689.2188,60.2031 Q688.5938,59.625 688,59.3594 Q687.4063,59.0781 686.7813,59.0781 Q685.4375,59.0781 684.75,60.1563 Q684.0625,61.2188 684.0625,63.3125 Q684.0625,65.4063 684.75,66.4844 Q685.4375,67.5469 686.7813,67.5469 Q687.4063,67.5469 688,67.2813 Q688.5938,67 689.2188,66.4219 L689.2188,69.1406 Z " fill="#000000"/><text fill="#000000" font-family="sans-serif" font-size="14" lengthAdjust="spacing" textLength="23" x="706.75" y="68.3467">File</text><line style="stroke:#181818;stroke-width:0.5;" x1="587" x2="817" y1="79.5" y2="79.5"/><rect fill="none" height="6" style="stroke:#C82930;stroke-width:1.0;" width="6" x="594" y="90.1484"/><text fill="#000000" font-family="sans-serif" font-size="14" lengthAdjust="spacing" textLength="206" x="606" y="96.4951">AcceptedFiles:List&lt;FileType&gt;</text><line style="stroke:#181818;stroke-width:0.5;" x1="587" x2="817" y1="103.7969" y2="103.7969"/><ellipse cx="597" cy="117.4453" fill="#84BE84" rx="3" ry="3" style="stroke:#038048;stroke-width:1.0;"/><text fill="#000000" font-family="sans-serif" font-size="14" lengthAdjust="spacing" textLength="94" x="606" y="120.792">AddFileType()</text><ellipse cx="597" cy="133.7422" fill="#84BE84" rx="3" ry="3" style="stroke:#038048;stroke-width:1.0;"/><text fill="#000000" font-family="sans-serif" font-size="14" lengthAdjust="spacing" textLength="124" x="606" y="137.0889">RemoveFileType()</text></g><!--link DropDown to Box--><g id="link_DropDown_Box"><path codeLine="46" d="M289.84,169.19 C302.02,193.73 307.5235,204.8287 319.3535,228.6487 " fill="none" id="DropDown-to-Box" style="stroke:#181818;stroke-width:1.0;"/><polygon fill="none" points="327.36,244.77,324.7273,225.9799,313.9797,231.3175,327.36,244.77" style="stroke:#181818;stroke-width:1.0;"/></g><!--link Choice to Box--><g id="link_Choice_Box"><path codeLine="47" d="M420.23,185.16 C410.27,205.23 407.8818,210.0364 398.5518,228.8364 " fill="none" id="Choice-to-Box" style="stroke:#181818;stroke-width:1.0;"/><polygon fill="none" points="390.55,244.96,403.9263,231.5036,393.1772,226.1691,390.55,244.96" style="stroke:#181818;stroke-width:1.0;"/></g><!--link Text to Box--><g id="link_Text_Box"><path codeLine="48" d="M100.08,136.73 C113.77,152.8 130.66,170.85 148,185 C187.38,217.13 220.235,237.7083 260.925,259.5783 " fill="none" id="Text-to-Box" style="stroke:#181818;stroke-width:1.0;"/><polygon fill="none" points="276.78,268.1,263.7656,254.2933,258.0844,264.8633,276.78,268.1" style="stroke:#181818;stroke-width:1.0;"/></g><!--link File to Box--><g id="link_File_Box"><path codeLine="49" d="M631.7,144.51 C611.59,157.83 589.55,172.17 569,185 C527.29,211.04 495.7266,229.8523 456.6966,252.5123 " fill="none" id="File-to-Box" style="stroke:#181818;stroke-width:1.0;"/><polygon fill="none" points="441.13,261.55,459.7092,257.7012,453.6841,247.3234,441.13,261.55" style="stroke:#181818;stroke-width:1.0;"/></g><!--SRC=[TPBTZi8W48NlvocuTBFf2nXZujhrIcFyUO469afIeG5qQxg- -tOAj0IpN77E33DVPk1rPItxqYrqmFfJiCCThPDQ1Nb-DZXSFzcta2v6Pn_1N5yhTS5Itb3PrD_f1_O2Ni203qtEsBhklQelG4QV_eAGN1hTbFf7nGVxXhhQETjAwnOdPwIwB4E5bH0-F3OliKQ7cKducULxxur0CtedRKAQJO7MLoqvTX1ulBJpDvo2xQJoqQYhDj43hjSPRcOIRcRzXnjWKjoDh37ERiKvDWu5UO6OhZJoP8JH6YiVyTRlCB5fcG1nCwmeVfV3p_7j9qsBdXGLcDGV]--></g></svg>